<?xml version="1.0" encoding="iso-8859-1"?>
<!-- Generator: Adobe Illustrator 19.0.0, SVG Export Plug-In . SVG Version: 6.00 Build 0)  -->
<svg version="1.1" id="Layer_1" xmlns="http://www.w3.org/2000/svg" xmlns:xlink="http://www.w3.org/1999/xlink" x="0px" y="0px"
	 viewBox="0 0 512.001 512.001" style="enable-background:new 0 0 512.001 512.001;" xml:space="preserve">
<g>
	<g>
		<path style="fill:#000;" d="M390.598,208.894h-41.894v-54.56c0-4.147-3.362-7.508-7.508-7.508s-7.508,3.362-7.508,7.508v54.56h-20.243V90.815
			c0-31.676-25.77-57.445-57.445-57.445s-57.445,25.77-57.445,57.445v118.079h-20.243V92.704c0-42.838,34.851-77.688,77.688-77.688
			s77.688,34.851,77.688,77.688v11.576c0,4.147,3.362,7.508,7.508,7.508s7.508-3.362,7.508-7.508V92.704
			C348.705,41.588,307.118,0,256,0s-92.704,41.588-92.704,92.704v116.19h-41.894c-17.992,0-32.631,14.638-32.631,32.631v180.101
			c0,4.147,3.362,7.508,7.508,7.508c4.146,0,7.508-3.362,7.508-7.508V241.525c0-9.712,7.902-17.614,17.614-17.614h49.402h35.259
			h99.874h35.262h49.402c9.712,0,17.614,7.902,17.614,17.614V479.37c0,9.712-7.902,17.614-17.614,17.614H121.402
			c-9.712,0-17.614-7.902-17.614-17.614v-3.685c0-4.147-3.362-7.508-7.508-7.508c-4.146,0-7.508,3.362-7.508,7.508v3.685
			c0,17.992,14.638,32.631,32.631,32.631h269.196c17.992,0,32.631-14.638,32.631-32.631V241.525
			C423.229,223.532,408.59,208.894,390.598,208.894z M213.571,208.894V90.815c0-23.396,19.034-42.429,42.429-42.429
			s42.429,19.034,42.429,42.429v118.079H213.571z"/>
	</g>
</g>
<g>
	<g>
		<path style="fill:#000;" d="M256,309.92c-16.286,0-29.535,13.249-29.535,29.535c0,8.172,3.411,15.948,9.286,21.491v15.798
			c-0.001,11.165,9.083,20.249,20.248,20.249c11.166,0,20.25-9.084,20.25-20.249v-15.798c5.874-5.544,9.286-13.32,9.286-21.491
			C285.535,323.169,272.286,309.92,256,309.92z M264.391,351.297c-1.982,1.408-3.159,3.689-3.159,6.12v19.326
			c0,2.837-2.397,5.233-5.233,5.233s-5.233-2.396-5.233-5.233v-19.326c0-2.431-1.177-4.712-3.159-6.12
			c-3.836-2.727-6.127-7.154-6.127-11.843c0.001-8.006,6.514-14.519,14.519-14.519c8.006,0,14.519,6.513,14.519,14.519
			C270.518,344.143,268.227,348.57,264.391,351.297z"/>
	</g>
</g>
<g>
</g>
<g>
</g>
<g>
</g>
<g>
</g>
<g>
</g>
<g>
</g>
<g>
</g>
<g>
</g>
<g>
</g>
<g>
</g>
<g>
</g>
<g>
</g>
<g>
</g>
<g>
</g>
<g>
</g>
</svg>
