<?xml version="1.0" encoding="iso-8859-1"?>
<!-- Generator: Adobe Illustrator 19.0.0, SVG Export Plug-In . SVG Version: 6.00 Build 0)  -->
<svg version="1.1" id="Layer_1" xmlns="http://www.w3.org/2000/svg" xmlns:xlink="http://www.w3.org/1999/xlink" x="0px" y="0px"
	 viewBox="0 0 512 512" style="enable-background:new 0 0 512 512;" xml:space="preserve">
<g>
	<g>
		<path style="fill:#000;" d="M420.409,208.893H244.37v-54.559c0-4.146-3.361-7.508-7.508-7.508c-4.147,0-7.508,3.361-7.508,7.508v54.56h-20.243V90.815
			c0-31.676-25.77-57.446-57.446-57.446c-31.676,0-57.446,25.77-57.446,57.446v64.02H73.977v-62.13
			c0-42.837,34.85-77.688,77.688-77.688c42.838,0,77.688,34.851,77.688,77.688v11.575c0,4.146,3.361,7.508,7.508,7.508
			c4.147,0,7.508-3.361,7.508-7.508V92.705C244.37,41.587,202.783,0,151.665,0S58.96,41.587,58.96,92.705v64.633
			c0,6.9,5.613,12.513,12.513,12.513h25.248c6.9,0,12.513-5.613,12.513-12.513V90.815c0-23.396,19.034-42.429,42.429-42.429
			c23.396,0,42.429,19.034,42.429,42.429v118.08h-42.88c-17.994,0-32.631,14.638-32.631,32.63v180.102
			c0,4.146,3.361,7.508,7.508,7.508c4.147,0,7.508-3.361,7.508-7.508V241.525c0-9.712,7.902-17.614,17.615-17.614h50.389h35.259
			h183.548c9.712,0,17.615,7.901,17.615,17.614V479.37c0,9.712-7.902,17.614-17.615,17.614H151.213
			c-9.712,0-17.615-7.901-17.615-17.614v-3.685c0-4.146-3.361-7.508-7.508-7.508c-4.147,0-7.508,3.361-7.508,7.508v3.685
			c0,17.993,14.638,32.63,32.631,32.63h269.195c17.994,0,32.631-14.638,32.631-32.63V241.525
			C453.041,223.532,438.402,208.893,420.409,208.893z"/>
	</g>
</g>
<g>
	<g>
		<path style="fill:#000;" d="M285.811,309.92c-16.286,0-29.535,13.249-29.535,29.535c0,8.172,3.412,15.948,9.285,21.492v15.797
			c0,11.165,9.084,20.249,20.25,20.249s20.25-9.084,20.25-20.249v-15.797c5.873-5.543,9.285-13.319,9.285-21.492
			C315.346,323.169,302.097,309.92,285.811,309.92z M294.205,351.297c-1.982,1.408-3.159,3.689-3.159,6.12v19.327
			c0,2.837-2.396,5.233-5.233,5.233s-5.233-2.396-5.233-5.233v-19.327c0-2.432-1.177-4.712-3.159-6.12
			c-3.837-2.727-6.127-7.154-6.127-11.843c0-8.005,6.512-14.518,14.518-14.518c8.005,0,14.518,6.513,14.521,14.518
			C300.332,344.143,298.041,348.57,294.205,351.297z"/>
	</g>
</g>
<g>
</g>
<g>
</g>
<g>
</g>
<g>
</g>
<g>
</g>
<g>
</g>
<g>
</g>
<g>
</g>
<g>
</g>
<g>
</g>
<g>
</g>
<g>
</g>
<g>
</g>
<g>
</g>
<g>
</g>
</svg>
